<svg xmlns="http://www.w3.org/2000/svg" viewBox="0 0 438.26 218.59"><defs><style>.cls-1,.cls-4,.cls-8{fill:#231f20;}.cls-2,.cls-3{fill:#cd171e;}.cls-3{fill-rule:evenodd;}.cls-4{font-size:72px;}.cls-4,.cls-8{font-family:Volkswagen-Serial-Bold, Volkswagen-Serial;font-weight:700;}.cls-5{letter-spacing:-0.09em;}.cls-6{letter-spacing:0em;}.cls-7{letter-spacing:0em;}.cls-8{font-size:21px;}.cls-9{letter-spacing:-0.01em;}.cls-10{letter-spacing:0.01em;}</style></defs><title>Ativo 15</title><g id="Camada_2" data-name="Camada 2"><g id="Foreground"><circle class="cls-1" cx="110.17" cy="105.44" r="105.44" transform="translate(-3.53 207.07) rotate(-85.53)"/><circle class="cls-2" cx="81.84" cy="49.87" r="24.47" transform="matrix(0.16, -0.99, 0.99, 0.16, 19.51, 122.67)"/><path class="cls-3" d="M11,166.3c4.25-32.7,10.88-60,35.44-76.78C83.53,64.21,223.59,61.68,231.18,67.59,241.81,75.85,140.06,69.27,11,166.3Z"/><path class="cls-3" d="M5.91,187.39c11.49-30,35.74-40.18,61.59-54.84,56.53-32.06,154.08-68,191.73-57.3C269.05,78,52.31,185.71,0,218.59.11,206.21,1.48,199,5.91,187.39Z"/><text class="cls-4" transform="translate(286.2 64.92)">Judo<tspan class="cls-5"><tspan x="0" y="86.4">T</tspan><tspan class="cls-6" x="27.36" y="86.4">o</tspan><tspan class="cls-7" x="67.61" y="86.4">tal</tspan></tspan></text><text class="cls-8" transform="translate(295.2 186.6)"><tspan class="cls-9">A</tspan><tspan x="13.19" y="0">dapta-se a t</tspan><tspan class="cls-10" x="127.95" y="0">i.</tspan></text></g></g></svg>